<?xml version="1.0" encoding="utf-8"?>
<!-- Uploaded to: SVG Repo, www.svgrepo.com, Generator: SVG Repo Mixer Tools -->
<svg fill="#000000" version="1.1" id="Sand" xmlns="http://www.w3.org/2000/svg" xmlns:xlink="http://www.w3.org/1999/xlink" 
	 width="800px" height="800px" viewBox="0 0 256 256" enable-background="new 0 0 256 256" xml:space="preserve">
<path d="M247.769,150.406c-0.621-7.079-8.779-11.157-16.669-15.101c-3.163-1.582-8.436-4.217-9.388-5.624
	c-2.966-7.613-4.592-8.336-16.975-13.843c-3.595-1.599-8.07-3.589-13.989-6.339c-16.138-7.497-28.605-17.704-38.623-25.906
	c-6.096-4.991-11.361-9.301-16.257-12.053c-7.321-4.115-13.951-4.706-19.367-1.956c-8.019,4.071-25.936,23.747-37.833,34.045
	c-16.338,14.143-45.719,32.539-59.563,36.186c-15.422,4.062-16.859,15.213,9.184,18.589c46.661,6.05,36.308,16.493,81.825,19.16
	c28.434,1.666,104.438-8.216,129.889-17.625c2.583-0.71,4.328-1.732,5.642-3.149C247.248,155.058,247.983,152.851,247.769,150.406z
	 M110.318,148.391c-2.175,0.002-3.94-1.759-3.942-3.934s1.759-3.94,3.934-3.942c2.175-0.002,3.94,1.759,3.942,3.934
	C114.254,146.623,112.493,148.389,110.318,148.391z M121.98,136.174c-1.933,0.002-3.502-1.563-3.504-3.497s1.563-3.502,3.497-3.504
	s3.502,1.563,3.504,3.497S123.914,136.172,121.98,136.174z M129.877,155.371c-2.417,0.003-4.378-1.954-4.38-4.371
	c-0.003-2.417,1.954-4.378,4.371-4.38c2.417-0.003,4.378,1.954,4.38,4.371S132.294,155.368,129.877,155.371z M153.353,120.756
	c-11.005-12.065-17.739-30.072-23.983-41.293c0.519,0.224,1.052,0.486,1.596,0.792c4.137,2.325,9.088,6.379,14.823,11.074
	c10.453,8.558,23.462,19.208,40.745,27.237c5.994,2.785,10.51,4.793,14.138,6.407c5.331,2.371,8.548,3.802,9.865,4.825
	c0.632,0.49,0.825,0.858,1.89,3.598c1.81,4.659,7.552,7.529,14.201,10.853c2.536,1.268,6.914,3.531,9.521,5.373
	c0.595,0.42,0.382,1.355-0.339,1.461c-2.599,0.381-7.172,0.66-14.533,0.182C204.288,150.163,175.392,144.919,153.353,120.756z
	 M70.992,179.579c0,2.777-2.252,5.029-5.029,5.029s-5.029-2.252-5.029-5.029c0-2.777,2.252-5.029,5.029-5.029
	S70.992,176.802,70.992,179.579z M53.12,171.698c0,2.449-1.986,4.435-4.435,4.435s-4.435-1.986-4.435-4.435s1.986-4.435,4.435-4.435
	S53.12,169.249,53.12,171.698z M33.06,181.874c0,2.209-1.791,4-4,4s-4-1.791-4-4s1.791-4,4-4S33.06,179.665,33.06,181.874z
	 M219.25,177.749c0,2.278-1.847,4.125-4.125,4.125S211,180.027,211,177.749s1.847-4.125,4.125-4.125S219.25,175.471,219.25,177.749z
	"/>
</svg>